<?xml version="1.0" encoding="UTF-8"?>
<svg width="1em" height="1em" viewBox="0 0 280 243" version="1.1" xmlns="http://www.w3.org/2000/svg" xmlns:xlink="http://www.w3.org/1999/xlink">
    <title>Chat</title>
    <g id="Page-1" stroke="none" stroke-width="1" fill="none" fill-rule="evenodd">
        <g id="Chat" fill="#000000" fill-rule="nonzero">
            <path d="M205.333333,243 C202.395599,243 199.629308,241.614955 197.866667,239.261538 L181.066667,216.830769 C175.778744,209.770521 167.479871,205.615385 158.666667,205.615385 L37.3333333,205.615385 C16.7147027,205.615385 0,188.877722 0,168.230769 L0,37.3846154 C0,16.7376624 16.7147027,0 37.3333333,0 L242.666667,0 C263.285297,0 280,16.7376624 280,37.3846154 L280,168.230769 C280,188.877722 263.285297,205.615385 242.666667,205.615385 C239.728932,205.615385 236.962641,207.00043 235.2,209.353846 L212.8,239.261538 C211.037359,241.614955 208.271068,243 205.333333,243 Z M37.3333333,18.6923077 C27.024018,18.6923077 18.6666667,27.0611389 18.6666667,37.3846154 L18.6666667,168.230769 C18.6666667,178.554246 27.024018,186.923077 37.3333333,186.923077 L158.666667,186.923077 C173.355341,186.923077 187.186796,193.848304 196,205.615385 L205.333333,218.045769 L220.266667,198.138462 C225.554589,191.078213 233.853462,186.923077 242.666667,186.923077 C252.975982,186.923077 261.333333,178.554246 261.333333,168.230769 L261.333333,37.3846154 C261.333333,27.0611389 252.975982,18.6923077 242.666667,18.6923077 L37.3333333,18.6923077 Z" id="Shape"></path>
            <path d="M224.65,83.5 L56.35,83.5 C51.1861376,83.5 47,79.3586339 47,74.25 C47,69.1413661 51.1861376,65 56.35,65 L224.65,65 C229.813862,65 234,69.1413661 234,74.25 C234,79.3586339 229.813862,83.5 224.65,83.5 Z M187.25,139 L56.35,139 C51.1861376,139 47,134.858634 47,129.75 C47,124.641366 51.1861376,120.5 56.35,120.5 L187.25,120.5 C192.413862,120.5 196.6,124.641366 196.6,129.75 C196.6,134.858634 192.413862,139 187.25,139 Z" id="Shape"></path>
        </g>
    </g>
</svg>
