<?xml version="1.0" encoding="UTF-8"?>
<svg width="1em" height="1em" viewBox="0 0 215 269" version="1.1" xmlns="http://www.w3.org/2000/svg" xmlns:xlink="http://www.w3.org/1999/xlink">
    <title>avatar</title>
    <g id="Page-1" stroke="none" stroke-width="1" fill="none" fill-rule="evenodd">
        <g id="avatar" fill="#000000" fill-rule="nonzero">
            <path d="M182.75,139.88 C200.561183,139.88 215,154.332248 215,172.16 L215,182.92 C215,225.345468 175.020535,269 107.5,269 C39.9794644,269 0,225.345468 0,182.92 L0,172.16 C0,154.332248 14.4388169,139.88 32.25,139.88 L182.75,139.88 Z M182.75,161.4 L32.25,161.4 C26.312939,161.4 21.5,166.217416 21.5,172.16 L21.5,182.92 C21.5,213.858168 52.2913691,247.48 107.5,247.48 C162.708631,247.48 193.5,213.858168 193.5,182.92 L193.5,172.16 C193.5,166.217416 188.687062,161.4 182.75,161.4 Z M107.5,0 C140.153836,0 166.625,26.4957885 166.625,59.18 C166.625,91.8642115 140.153836,118.36 107.5,118.36 C74.8461642,118.36 48.375,91.8642115 48.375,59.18 C48.375,26.4957885 74.8461642,0 107.5,0 Z M107.5,21.52 C86.7202863,21.52 69.875,38.3809564 69.875,59.18 C69.875,79.9790436 86.7202863,96.84 107.5,96.84 C128.279714,96.84 145.125,79.9790436 145.125,59.18 C145.125,38.3809564 128.279714,21.52 107.5,21.52 Z" id="Shape"></path>
        </g>
    </g>
</svg>
