<?xml version="1.0" encoding="UTF-8"?>
<svg width="1em" height="1em" viewBox="0 0 222 290" version="1.1" xmlns="http://www.w3.org/2000/svg" xmlns:xlink="http://www.w3.org/1999/xlink">
    <title>summarize</title>
    <g id="Page-1" stroke="none" stroke-width="1" fill="none" fill-rule="evenodd">
        <g id="summarize" fill="#000000" fill-rule="nonzero">
            <path d="M199.440318,111.781496 L116.116449,2.39376338 C113.696119,-0.797921125 108.306853,-0.797921125 105.854253,2.39376338 L22.5626545,111.781496 C-10.9347027,155.755816 -6.70719421,218.428893 32.4053268,257.502849 C53.4137849,278.458353 81.2959782,290 110.985351,290 C140.674723,290 168.589187,278.458353 189.565374,257.502849 C228.710166,218.396654 232.937675,155.755816 199.440318,111.781496 Z M180.432665,248.379145 C161.909078,266.916706 137.22172,277.104305 110.985351,277.104305 C84.7489813,277.104305 60.0938937,266.916706 41.538036,248.379145 C6.97573394,213.818682 3.23229134,158.463912 32.8248506,119.583391 L110.985351,16.9658987 L189.145851,119.583391 C218.770681,158.463912 215.027238,213.818682 180.432665,248.379145 Z" id="Shape"></path>
            <path d="M182,150.74 C182,140.114 173.318636,131.42 162.636364,131.42 C158.408636,131.42 154.471364,132.8368 151.276364,135.1552 L129.685909,120.3432 C130.105455,118.7332 130.363636,117.0588 130.363636,115.32 C130.363636,104.694 121.682273,96 111,96 C100.317727,96 91.6363636,104.694 91.6363636,115.32 C91.6363636,117.0588 91.8945455,118.7332 92.3140909,120.3432 L70.7236364,135.1552 C67.5286364,132.8368 63.6236364,131.42 59.3636364,131.42 C48.6813636,131.42 40,140.114 40,150.74 C40,159.1442 45.4218182,166.2926 52.9090909,168.933 L52.9090909,184.067 C45.4218182,186.7396 40,193.888 40,202.26 C40,212.9182 48.6813636,221.58 59.3636364,221.58 C63.6236364,221.58 67.5286364,220.1954 70.7236364,217.877 L92.3140909,232.689 C91.8945455,234.299 91.6363636,235.9734 91.6363636,237.68 C91.6363636,248.3382 100.317727,257 111,257 C121.682273,257 130.363636,248.3382 130.363636,237.68 C130.363636,235.9734 130.105455,234.299 129.685909,232.689 L151.276364,217.877 C154.471364,220.1954 158.408636,221.58 162.636364,221.58 C173.318636,221.58 182,212.9182 182,202.26 C182,193.888 176.610455,186.7396 169.090909,184.067 L169.090909,168.933 C176.610455,166.2926 182,159.1442 182,150.74 Z M111,108.88 C114.582273,108.88 117.454545,111.778 117.454545,115.32 C117.454545,118.8942 114.582273,121.76 111,121.76 C107.45,121.76 104.545455,118.8942 104.545455,115.32 C104.545455,111.778 107.45,108.88 111,108.88 Z M59.3636364,144.3 C62.9459091,144.3 65.8181818,147.198 65.8181818,150.74 C65.8181818,154.3142 62.9459091,157.18 59.3636364,157.18 C55.8136364,157.18 52.9090909,154.3142 52.9090909,150.74 C52.9090909,147.198 55.8136364,144.3 59.3636364,144.3 Z M59.3636364,208.7 C55.8136364,208.7 52.9090909,205.8342 52.9090909,202.26 C52.9090909,198.718 55.8136364,195.82 59.3636364,195.82 C62.9459091,195.82 65.8181818,198.718 65.8181818,202.26 C65.8181818,205.8342 62.9459091,208.7 59.3636364,208.7 Z M111,244.12 C107.45,244.12 104.545455,241.2542 104.545455,237.68 C104.545455,234.138 107.45,231.24 111,231.24 C114.582273,231.24 117.454545,234.138 117.454545,237.68 C117.454545,241.2542 114.582273,244.12 111,244.12 Z M143.272727,202.26 C143.272727,203.9988 143.530909,205.6732 143.950455,207.2832 L122.36,222.0952 C119.165,219.7768 115.26,218.36 111,218.36 C106.772273,218.36 102.835,219.7768 99.64,222.0952 L78.0495455,207.2832 C78.5013636,205.6732 78.7272727,203.9988 78.7272727,202.26 C78.7272727,193.888 73.3377273,186.7396 65.8181818,184.067 L65.8181818,168.933 C73.3377273,166.2926 78.7272727,159.1442 78.7272727,150.74 C78.7272727,149.0334 78.5013636,147.359 78.0495455,145.749 L99.64,130.937 C102.835,133.2554 106.772273,134.64 111,134.64 C115.26,134.64 119.165,133.2554 122.36,130.937 L143.950455,145.749 C143.530909,147.359 143.272727,149.0334 143.272727,150.74 C143.272727,159.1442 148.694545,166.2926 156.181818,168.933 L156.181818,184.067 C148.694545,186.7396 143.272727,193.888 143.272727,202.26 Z M162.636364,208.7 C159.086364,208.7 156.181818,205.8342 156.181818,202.26 C156.181818,198.718 159.086364,195.82 162.636364,195.82 C166.218636,195.82 169.090909,198.718 169.090909,202.26 C169.090909,205.8342 166.218636,208.7 162.636364,208.7 Z M162.636364,157.18 C159.086364,157.18 156.181818,154.3142 156.181818,150.74 C156.181818,147.198 159.086364,144.3 162.636364,144.3 C166.218636,144.3 169.090909,147.198 169.090909,150.74 C169.090909,154.3142 166.218636,157.18 162.636364,157.18 Z" id="Shape"></path>
        </g>
    </g>
</svg>
