<?xml version="1.0" encoding="UTF-8"?>
<svg width="1em" height="1em" viewBox="0 0 334 334" version="1.1" xmlns="http://www.w3.org/2000/svg" xmlns:xlink="http://www.w3.org/1999/xlink">
    <title>translate</title>
    <g id="Page-1" stroke="none" stroke-width="1" fill="none" fill-rule="evenodd">
        <g id="translate">
            <polygon id="Path" points="0 0 334 0 334 334 0 334"></polygon>
            <path d="M175.880095,218.013 C177.825435,213.009 176.574859,207.31 172.684179,203.418 L143.643029,174.784 L144.059887,174.367 C168.237687,147.401 185.467843,116.404 195.611403,83.6 L222.56826,83.6 C230.071715,83.6 236.324594,77.345 236.324594,69.839 L236.324594,69.561 C236.324594,62.055 230.071715,55.8 222.56826,55.8 L139.057584,55.8 L139.057584,41.9 C139.057584,34.255 132.804705,28 125.162297,28 C117.519889,28 111.26701,34.255 111.26701,41.9 L111.26701,55.8 L27.7563343,55.8 C20.2528792,55.8 14,62.055 14,69.561 C14,77.206 20.2528792,83.322 27.7563343,83.322 L169.210357,83.322 C159.900515,110.288 145.17151,135.725 125.162297,157.965 C113.907114,145.594 104.458319,132.111 96.5380055,117.933 C94.3147596,113.902 90.2851263,111.4 85.6996816,111.4 C76.1119334,111.4 69.9980071,121.825 74.7224047,130.165 C83.4764356,145.872 94.1758067,160.884 106.681565,174.784 L45.9591604,234.693 C40.4010455,240.114 40.4010455,249.01 45.9591604,254.431 C51.3783224,259.852 60.1323533,259.852 65.6904681,254.431 L125.162297,194.8 L153.230777,222.878 C160.317373,229.967 172.406273,227.326 175.880095,218.013 Z M243.272238,139.2 C234.935065,139.2 227.43161,144.343 224.5136,152.266 L173.517896,288.486 C170.183027,296.965 176.574859,306 185.606796,306 C191.025958,306 195.889308,302.664 197.834649,297.521 L210.201454,264.3 L276.204068,264.3 L288.709826,297.521 C290.655167,302.525 295.518517,306 300.937679,306 C309.969616,306 316.361448,296.965 313.165532,288.486 L262.169828,152.266 C259.112865,144.343 251.60941,139.2 243.272238,139.2 L243.272238,139.2 Z M220.761872,236.5 L243.272238,176.313 L265.782603,236.5 L220.761872,236.5 L220.761872,236.5 Z" id="Shape" fill="#000000" fill-rule="nonzero"></path>
        </g>
    </g>
</svg>
